<svg width="562" height="715" viewBox="0 0 562 715" fill="none" xmlns="http://www.w3.org/2000/svg">
<path d="M355.617 159C344.092 159 332.683 161.314 322.066 165.804C311.448 170.294 301.838 176.871 293.801 185.144L281.062 198.297L268.199 185.144C260.163 176.871 250.553 170.295 239.936 165.804C229.318 161.314 217.91 159.001 206.385 159.001C194.86 159.001 183.451 161.314 172.834 165.804C162.217 170.295 152.607 176.871 144.571 185.144C128.171 202.087 119 224.756 119 248.352C119 271.948 128.171 294.617 144.571 311.56L281.062 451L417.43 311.56C433.829 294.617 443 271.948 443 248.352C443 224.756 433.829 202.087 417.43 185.144C409.394 176.871 399.784 170.295 389.167 165.805C378.55 161.314 367.142 159 355.617 159Z" fill="#FF0000" stroke="white" stroke-width="11"/>
<path d="M281 706L70.1128 457.283C68.9153 455.855 61.4078 445.995 61.4078 445.995C25.3803 398.542 5.91583 340.58 6.00027 281C6.00027 208.065 34.9734 138.118 86.5459 86.5456C138.118 34.9731 208.066 6 281 6C353.935 6 423.882 34.9731 475.455 86.5456C527.027 138.118 556 208.065 556 281C556.09 340.555 536.639 398.496 500.63 445.932L500.593 445.995C500.593 445.995 493.093 455.855 491.975 457.18L281 706ZM101.313 415.875C101.338 415.893 107.148 423.58 108.478 425.235L281 628.697L453.75 424.948C454.848 423.568 460.708 415.825 460.72 415.805C490.152 377.032 506.058 329.678 506 281C506 221.326 482.295 164.097 440.099 121.901C397.904 79.7053 340.674 56 281 56C221.327 56 164.097 79.7053 121.901 121.901C79.7056 164.097 56.0003 221.326 56.0003 281C55.945 329.704 71.8623 377.083 101.313 415.875Z" fill="#FF0000" stroke="white" stroke-width="11"/>
</svg>
