<svg width="590" height="751" viewBox="0 0 590 751" fill="none" xmlns="http://www.w3.org/2000/svg">
<g filter="url(#filter0_dd_20_111)">
<path d="M369.617 173C358.092 173 346.683 175.314 336.066 179.804C325.448 184.294 315.838 190.871 307.801 199.144L295.062 212.297L282.199 199.144C274.163 190.871 264.553 184.295 253.936 179.804C243.318 175.314 231.91 173.001 220.385 173.001C208.86 173.001 197.451 175.314 186.834 179.804C176.217 184.295 166.607 190.871 158.571 199.144C142.171 216.087 133 238.756 133 262.352C133 285.948 142.171 308.617 158.571 325.56L295.062 465L431.43 325.56C447.829 308.617 457 285.948 457 262.352C457 238.756 447.829 216.087 431.43 199.144C423.394 190.871 413.784 184.295 403.167 179.805C392.55 175.314 381.142 173 369.617 173Z" fill="#FF0000"/>
<path d="M369.617 173C358.092 173 346.683 175.314 336.066 179.804C325.448 184.294 315.838 190.871 307.801 199.144L295.062 212.297L282.199 199.144C274.163 190.871 264.553 184.295 253.936 179.804C243.318 175.314 231.91 173.001 220.385 173.001C208.86 173.001 197.451 175.314 186.834 179.804C176.217 184.295 166.607 190.871 158.571 199.144C142.171 216.087 133 238.756 133 262.352C133 285.948 142.171 308.617 158.571 325.56L295.062 465L431.43 325.56C447.829 308.617 457 285.948 457 262.352C457 238.756 447.829 216.087 431.43 199.144C423.394 190.871 413.784 184.295 403.167 179.805C392.55 175.314 381.142 173 369.617 173Z" stroke="#FF0000" stroke-width="5"/>
</g>
<path d="M295 10C370.587 10 443.078 40.0268 496.525 93.4746C549.97 146.919 579.996 219.404 580 294.985L579.99 297.878C579.461 358.413 559.467 417.195 522.938 465.521L522.886 465.61L522.552 466.049L522.551 466.051C522.55 466.052 522.548 466.054 522.546 466.057C522.542 466.062 522.537 466.069 522.529 466.078C522.515 466.097 522.494 466.126 522.466 466.162C522.41 466.235 522.329 466.343 522.225 466.479C522.016 466.753 521.717 467.145 521.355 467.619C520.632 468.568 519.656 469.848 518.643 471.171C516.736 473.661 514.375 476.731 513.619 477.627L513.611 477.637L513.603 477.647L302.628 726.467L295 735.463L287.373 726.467L76.4854 477.75L76.4688 477.729L76.4512 477.709C75.6694 476.777 73.3051 473.705 71.375 471.188C70.356 469.858 69.3756 468.575 68.6504 467.625C68.2876 467.15 67.988 466.757 67.7793 466.483C67.6749 466.346 67.5929 466.239 67.5371 466.166C67.5093 466.129 67.4881 466.101 67.4736 466.082C67.4665 466.073 67.4607 466.065 67.457 466.061C67.4552 466.058 67.4541 466.056 67.4531 466.055L67.4521 466.054V466.053L75.4082 459.995L67.4512 466.053L67.4434 466.042C30.0924 416.846 9.91246 356.754 10 294.985C10.0039 219.404 40.0303 146.919 93.4746 93.4746C146.922 40.0268 219.413 10.0001 295 10ZM295 80C237.979 80.0001 183.293 102.652 142.973 142.972C102.652 183.292 80 237.978 80 295V295.012C79.9473 341.496 95.1295 386.716 123.22 423.751C123.221 423.752 123.221 423.753 123.222 423.754C123.256 423.798 123.291 423.844 123.316 423.877C123.372 423.949 123.445 424.045 123.528 424.154C123.697 424.376 123.935 424.69 124.219 425.063C124.789 425.815 125.556 426.824 126.363 427.885C127.979 430.008 129.61 432.139 130.219 432.902L294.999 627.234L459.992 432.634C460.533 431.947 462.109 429.883 463.68 427.816C464.478 426.766 465.243 425.757 465.809 425.01C466.083 424.647 466.31 424.347 466.471 424.135L466.482 424.117L466.755 423.759C494.864 386.728 510.055 341.502 510 295.012V295L509.996 293.664C509.645 237.125 487.034 182.977 447.028 142.972C406.708 102.651 352.021 80 295 80Z" fill="#FF0000" stroke="#FF0000" stroke-width="20"/>
<defs>
<filter id="filter0_dd_20_111" x="126.5" y="170.5" width="337" height="306.075" filterUnits="userSpaceOnUse" color-interpolation-filters="sRGB">
<feFlood flood-opacity="0" result="BackgroundImageFix"/>
<feColorMatrix in="SourceAlpha" type="matrix" values="0 0 0 0 0 0 0 0 0 0 0 0 0 0 0 0 0 0 127 0" result="hardAlpha"/>
<feOffset dy="4"/>
<feGaussianBlur stdDeviation="2"/>
<feComposite in2="hardAlpha" operator="out"/>
<feColorMatrix type="matrix" values="0 0 0 0 0 0 0 0 0 0 0 0 0 0 0 0 0 0 0.25 0"/>
<feBlend mode="normal" in2="BackgroundImageFix" result="effect1_dropShadow_20_111"/>
<feColorMatrix in="SourceAlpha" type="matrix" values="0 0 0 0 0 0 0 0 0 0 0 0 0 0 0 0 0 0 127 0" result="hardAlpha"/>
<feOffset dy="4"/>
<feGaussianBlur stdDeviation="2"/>
<feComposite in2="hardAlpha" operator="out"/>
<feColorMatrix type="matrix" values="0 0 0 0 0 0 0 0 0 0 0 0 0 0 0 0 0 0 0.25 0"/>
<feBlend mode="normal" in2="effect1_dropShadow_20_111" result="effect2_dropShadow_20_111"/>
<feBlend mode="normal" in="SourceGraphic" in2="effect2_dropShadow_20_111" result="shape"/>
</filter>
</defs>
</svg>
